<?xml version="1.0" encoding="UTF-8" standalone="no"?>
<!-- Created with Inkscape (http://www.inkscape.org/) -->

<svg
   width="8.0532522mm"
   height="8.0532522mm"
   viewBox="0 0 8.0532522 8.0532522"
   version="1.1"
   id="svg64003"
   inkscape:version="1.2.2 (732a01da63, 2022-12-09)"
   sodipodi:docname="instagram.svg"
   xmlns:inkscape="http://www.inkscape.org/namespaces/inkscape"
   xmlns:sodipodi="http://sodipodi.sourceforge.net/DTD/sodipodi-0.dtd"
   xmlns="http://www.w3.org/2000/svg"
   xmlns:svg="http://www.w3.org/2000/svg">
  <sodipodi:namedview
     id="namedview64005"
     pagecolor="#ffffff"
     bordercolor="#666666"
     borderopacity="1.0"
     inkscape:showpageshadow="2"
     inkscape:pageopacity="0.0"
     inkscape:pagecheckerboard="0"
     inkscape:deskcolor="#d1d1d1"
     inkscape:document-units="mm"
     showgrid="false"
     inkscape:zoom="0.46769781"
     inkscape:cx="67.351181"
     inkscape:cy="-6.4143982"
     inkscape:window-width="1366"
     inkscape:window-height="705"
     inkscape:window-x="-8"
     inkscape:window-y="-8"
     inkscape:window-maximized="1"
     inkscape:current-layer="layer1" />
  <defs
     id="defs64000" />
  <g
     inkscape:label="Layer 1"
     inkscape:groupmode="layer"
     id="layer1"
     transform="translate(-87.05337,-150.41337)">
    <g
       style="fill:#ffffff"
       id="g54293"
       transform="matrix(0.01575979,0,0,0.01575979,87.04549,150.40549)">
      <g
         id="5151e0c8492e5103c096af88a50059a5"
         style="fill:#ffffff">

<path
   display="inline"
   fill-rule="evenodd"
   clip-rule="evenodd"
   d="m 66.084,0.5 h 379.819 c 36.079,0 65.597,29.505 65.597,65.584 v 379.819 c 0,36.079 -29.518,65.597 -65.597,65.597 H 66.084 C 30.005,511.5 0.5,481.982 0.5,445.903 V 66.084 C 0.5,30.005 30.005,0.5 66.084,0.5 Z m 306.65,56.764 c -12.65,0 -23.005,10.355 -23.005,23.005 v 55.067 c 0,12.65 10.354,23.005 23.005,23.005 h 57.762 c 12.65,0 23.005,-10.354 23.005,-23.005 V 80.269 c 0,-12.65 -10.354,-23.005 -23.005,-23.005 z m 81.004,159.326 h -44.975 c 4.254,13.897 6.55,28.606 6.55,43.852 0,84.996 -71.111,153.898 -158.839,153.898 -87.716,0 -158.827,-68.902 -158.827,-153.898 0,-15.245 2.295,-29.954 6.55,-43.852 H 57.276 v 215.853 c 0,11.178 9.132,20.322 20.311,20.322 h 355.841 c 11.166,0 20.311,-9.145 20.311,-20.322 V 216.59 Z M 256.475,155.447 c -56.677,0 -102.625,44.525 -102.625,99.443 0,54.918 45.948,99.443 102.625,99.443 56.688,0 102.636,-44.525 102.636,-99.443 0,-54.918 -45.948,-99.443 -102.636,-99.443 z"
   id="path54282"
   style="fill:#ffffff">

</path>


</g>
    </g>
  </g>
</svg>
