<?xml version="1.0" encoding="UTF-8" standalone="no"?>
<!-- Created with Inkscape (http://www.inkscape.org/) -->

<svg
   width="7.0246801mm"
   height="6.3487678mm"
   viewBox="0 0 7.0246801 6.3487678"
   version="1.1"
   id="svg62398"
   inkscape:version="1.2.2 (732a01da63, 2022-12-09)"
   sodipodi:docname="linkedin (1).svg"
   xml:space="preserve"
   xmlns:inkscape="http://www.inkscape.org/namespaces/inkscape"
   xmlns:sodipodi="http://sodipodi.sourceforge.net/DTD/sodipodi-0.dtd"
   xmlns="http://www.w3.org/2000/svg"
   xmlns:svg="http://www.w3.org/2000/svg"><sodipodi:namedview
     id="namedview62400"
     pagecolor="#ffffff"
     bordercolor="#666666"
     borderopacity="1.0"
     inkscape:showpageshadow="2"
     inkscape:pageopacity="0.0"
     inkscape:pagecheckerboard="0"
     inkscape:deskcolor="#d1d1d1"
     inkscape:document-units="mm"
     showgrid="false"
     inkscape:zoom="1.3228492"
     inkscape:cx="144.76329"
     inkscape:cy="65.011191"
     inkscape:window-width="1366"
     inkscape:window-height="705"
     inkscape:window-x="-8"
     inkscape:window-y="-8"
     inkscape:window-maximized="1"
     inkscape:current-layer="layer1" /><defs
     id="defs62395" /><g
     inkscape:label="Layer 1"
     inkscape:groupmode="layer"
     id="layer1"
     transform="translate(-66.890804,-132.13751)"><path
       d="m 68.463514,138.48628 h -1.45668 v -4.23961 h 1.45668 z m -0.72913,-4.81793 c -0.46569,0 -0.84358,-0.3487 -0.84358,-0.76968 a 0.84358649,0.76259127 0 0 1 1.68717,0 c 0,0.42098 -0.37789,0.76968 -0.84359,0.76968 z m 6.17951,4.81793 h -1.45354 v -2.06382 c 0,-0.49185 -0.011,-1.12262 -0.75735,-1.12262 -0.75734,0 -0.87338,0.53438 -0.87338,1.08719 v 2.09925 h -1.4551 v -4.23961 h 1.39709 v 0.57832 h 0.0204 c 0.19443,-0.3331 0.66954,-0.68463 1.37828,-0.68463 1.47392,0 1.74519,0.87741 1.74519,2.01704 v 2.32888 z"
       id="path496"
       style="fill:#ffffff;stroke-width:0.0149083" /></g></svg>
