<?xml version="1.0" encoding="UTF-8" standalone="no"?>
<!-- Created with Inkscape (http://www.inkscape.org/) -->

<svg
   width="74.436668mm"
   height="10.62144mm"
   viewBox="0 0 74.436668 10.62144"
   version="1.1"
   id="svg18635"
   inkscape:version="1.2.2 (732a01da63, 2022-12-09)"
   sodipodi:docname="title-image.svg"
   xmlns:inkscape="http://www.inkscape.org/namespaces/inkscape"
   xmlns:sodipodi="http://sodipodi.sourceforge.net/DTD/sodipodi-0.dtd"
   xmlns="http://www.w3.org/2000/svg"
   xmlns:svg="http://www.w3.org/2000/svg">
  <sodipodi:namedview
     id="namedview18637"
     pagecolor="#ffffff"
     bordercolor="#666666"
     borderopacity="1.0"
     inkscape:showpageshadow="2"
     inkscape:pageopacity="0.0"
     inkscape:pagecheckerboard="0"
     inkscape:deskcolor="#d1d1d1"
     inkscape:document-units="mm"
     showgrid="false"
     inkscape:zoom="0.46769781"
     inkscape:cx="-58.79865"
     inkscape:cy="42.762655"
     inkscape:window-width="1366"
     inkscape:window-height="705"
     inkscape:window-x="-8"
     inkscape:window-y="-8"
     inkscape:window-maximized="1"
     inkscape:current-layer="layer1" />
  <defs
     id="defs18632" />
  <g
     inkscape:label="Layer 1"
     inkscape:groupmode="layer"
     id="layer1"
     transform="translate(-120.61595,-137.24927)">
    <g
       aria-label="Supreeme"
       id="text15136"
       style="font-weight:bold;font-size:14.4313px;line-height:1.25;font-family:Cinzel;-inkscape-font-specification:'Cinzel Bold';letter-spacing:0px;word-spacing:0px;fill:#ffffff;stroke-width:0.360782">
      <path
         d="m 128.71191,144.29175 q 0,1.74619 -1.2411,2.61206 -1.24109,0.85145 -3.30476,0.85145 -1.1978,0 -2.10697,-0.25976 -0.90918,-0.2742 -1.31325,-0.67827 -0.12988,-0.31749 -0.12988,-0.67827 0,-0.37522 0.0577,-0.72157 0.15875,-0.85145 0.53396,-1.32768 h 0.12988 q -0.0144,0.0866 -0.0144,0.18761 0,1.06791 0.83702,1.91936 0.85144,0.83702 2.309,0.83702 0.98133,0 1.50086,-0.40408 0.53396,-0.41851 0.53396,-0.93804 0,-0.53395 -0.36079,-0.90917 -0.36078,-0.37521 -1.16893,-0.75042 l -2.3523,-1.09678 q -0.99576,-0.44737 -1.44313,-1.25553 -0.36079,-0.63497 -0.36079,-1.39983 0,-1.55858 1.05349,-2.36674 0.88031,-0.66384 2.33787,-0.66384 0.95247,0 2.43889,0.14432 h 1.12564 l -0.31749,2.3523 h -0.14431 q 0,-0.79372 -0.62055,-1.28439 -0.62054,-0.49066 -1.58744,-0.49066 -0.95247,0 -1.48642,0.33192 -0.51953,0.33192 -0.56282,0.88031 -0.0577,0.67827 0.86587,1.1545 0.15875,0.0866 0.41851,0.18761 l 2.69865,1.25552 q 1.67404,0.76486 1.67404,2.51105 z"
         id="path18783" />
      <path
         d="m 139.33335,139.00989 h -0.18761 q -0.25976,0 -0.44737,0.18761 -0.18761,0.17318 -0.18761,0.43294 v 4.7046 q 0,1.60188 -0.95246,2.49662 -0.95247,0.89474 -2.71309,0.89474 -4.4737,0 -4.4737,-3.36249 v -4.73347 q 0,-0.41851 -0.38964,-0.57725 -0.11545,-0.0433 -0.24534,-0.0433 h -0.1876 v -0.11545 h 4.4737 v 0.11545 h -0.20204 q -0.25976,0 -0.44737,0.17318 -0.17317,0.17317 -0.17317,0.44737 v 4.7046 q 0,1.73176 0.96689,2.38117 0.47624,0.31749 1.14008,0.31749 0.98132,0 1.51528,-0.66384 0.53396,-0.66384 0.54839,-1.87607 v -4.86335 q -0.0144,-0.2742 -0.20204,-0.44737 -0.17317,-0.17318 -0.43294,-0.17318 h -0.1876 v -0.11545 h 2.78524 z"
         id="path18785" />
      <path
         d="m 143.92251,143.4836 v -0.11545 q 0.51952,-0.0722 0.8803,-0.79373 0.28863,-0.59168 0.28863,-1.31324 0,-1.06792 -0.66384,-1.51529 -0.30306,-0.20204 -0.72156,-0.20204 h -0.17318 v 7.11463 q 0.0144,0.33192 0.21647,0.54839 0.20204,0.20204 0.53396,0.20204 h 0.14431 v 0.14431 h -4.61802 v -0.14431 h 0.15875 q 0.30306,0 0.51953,-0.21647 0.21647,-0.21647 0.21647,-0.53396 v -6.88373 q -0.0144,-0.31749 -0.23091,-0.51952 -0.21647,-0.21647 -0.51952,-0.21647 h -0.15875 v -0.14432 h 4.84892 q 2.06368,0 2.88626,0.99576 0.5051,0.62055 0.5051,1.55858 0,0.56282 -0.21647,1.11121 -0.20204,0.54839 -0.63498,0.90917 -0.75043,0.63498 -1.61631,0.63498 -0.86587,0 -1.64516,-0.62054 z"
         id="path18787" />
      <path
         d="m 156.96841,141.27561 q 0,0.75042 -0.36079,1.3854 -0.41851,0.736 -1.48642,0.92361 0.50509,0.12988 0.9236,0.51952 0.43294,0.37522 0.56282,0.62055 0.14432,0.24533 0.28863,0.54839 0.85145,1.6596 1.34211,1.97709 0.25976,0.15874 0.64941,0.15874 v 0.14431 h -1.7029 q -1.42869,0 -1.86163,-0.1876 -0.59169,-0.25977 -0.86588,-0.57726 -0.25976,-0.33192 -0.5051,-0.76486 -0.38964,-0.66383 -0.63497,-1.8905 -0.14432,-0.6494 -0.47624,-0.82258 v -0.11545 h 0.0722 q 0.40408,0 0.70713,-0.36078 0.30306,-0.37522 0.38965,-1.21223 0,-0.0144 0,-0.0866 0.0722,-0.64941 -0.11545,-1.06792 -0.18761,-0.43293 -0.33192,-0.57725 -0.14431,-0.14431 -0.37522,-0.21647 -0.24533,-0.0866 -0.44737,-0.0866 h -0.28862 v 7.07134 q 0,0.36078 0.2309,0.56282 0.24533,0.18761 0.53396,0.18761 h 0.12988 v 0.14431 h -4.63245 v -0.14431 h 0.15875 q 0.30305,0 0.51952,-0.21647 0.21647,-0.21647 0.21647,-0.53396 v -6.8693 q 0,-0.31749 -0.21647,-0.53395 -0.20204,-0.21647 -0.50509,-0.21647 h -0.17318 v -0.14432 h 4.96437 q 3.29034,0 3.29034,2.38117 z"
         id="path18789" />
      <path
         d="m 158.33937,147.55322 v -0.14431 h 0.15875 q 0.30305,0 0.4618,-0.15874 0.28863,-0.2742 0.28863,-0.59169 v -6.85487 q 0,-0.33192 -0.23091,-0.54838 -0.21647,-0.21647 -0.51952,-0.21647 h -0.15875 v -0.14432 h 5.62821 q 0.36078,0 0.80815,-0.0721 0.44737,-0.0722 0.62055,-0.14432 v 2.72752 h -0.14431 v -0.0722 q 0,-0.83701 -0.44737,-1.29881 -0.43294,-0.46181 -1.2411,-0.47624 h -1.48642 v 3.39136 h 1.11121 q 0.63498,-0.0144 1.02462,-0.41851 0.40408,-0.41851 0.40408,-1.06792 v -0.0289 h 0.14431 v 3.72328 h -0.14431 v -0.0577 q 0,-0.63498 -0.40408,-1.05348 -0.38964,-0.41851 -1.02462,-0.41851 h -1.11121 v 3.26147 h 1.3854 q 0.86588,0 1.57302,-0.63497 0.70713,-0.63498 0.96689,-1.73176 h 0.12989 l -0.40408,3.03057 z"
         id="path18791" />
      <path
         d="m 166.63738,147.55322 v -0.14431 h 0.15875 q 0.30305,0 0.4618,-0.15874 0.28862,-0.2742 0.28862,-0.59169 v -6.85487 q 0,-0.33192 -0.2309,-0.54838 -0.21647,-0.21647 -0.51952,-0.21647 h -0.15875 v -0.14432 h 5.62821 q 0.36078,0 0.80815,-0.0721 0.44737,-0.0722 0.62055,-0.14432 v 2.72752 h -0.14432 v -0.0722 q 0,-0.83701 -0.44737,-1.29881 -0.43294,-0.46181 -1.24109,-0.47624 h -1.48642 v 3.39136 h 1.11121 q 0.63498,-0.0144 1.02462,-0.41851 0.40408,-0.41851 0.40408,-1.06792 v -0.0289 h 0.14431 v 3.72328 H 172.915 v -0.0577 q 0,-0.63498 -0.40408,-1.05348 -0.38964,-0.41851 -1.02462,-0.41851 h -1.11121 v 3.26147 h 1.3854 q 0.86588,0 1.57301,-0.63497 0.70714,-0.63498 0.9669,-1.73176 h 0.12988 l -0.40407,3.03057 z"
         id="path18793" />
      <path
         d="m 182.56955,147.55322 v -0.14431 h 0.20204 q 0.25976,0 0.37521,-0.17318 0.11545,-0.1876 0.10102,-0.37521 l -0.47623,-3.23261 -1.99152,2.78524 q -0.21647,0.30306 -0.37522,0.70713 -0.15874,0.40408 -0.15874,0.54839 0,0.15875 0,0.20204 h -0.11545 l -3.24705,-4.04076 -0.38964,3.03057 q -0.0144,0.14431 0.0722,0.28863 0.14431,0.25976 0.40407,0.25976 h 0.20204 v 0.14431 h -2.79967 v -0.14431 h 0.18761 q 0.36078,0 0.62054,-0.18761 0.25976,-0.20204 0.30306,-0.56282 l 1.12564,-7.93721 h 0.11545 l 4.30053,5.41173 3.85315,-5.41173 h 0.12989 l 1.1545,8.00937 q 0.0866,0.31749 0.31749,0.50509 0.24533,0.17318 0.56282,0.17318 h 0.20204 v 0.14431 z"
         id="path18795" />
      <path
         d="m 187.25972,147.55322 v -0.14431 h 0.15875 q 0.30305,0 0.4618,-0.15874 0.28862,-0.2742 0.28862,-0.59169 v -6.85487 q 0,-0.33192 -0.2309,-0.54838 -0.21647,-0.21647 -0.51952,-0.21647 h -0.15875 v -0.14432 h 5.62821 q 0.36078,0 0.80815,-0.0721 0.44737,-0.0722 0.62055,-0.14432 v 2.72752 h -0.14431 v -0.0722 q 0,-0.83701 -0.44738,-1.29881 -0.43293,-0.46181 -1.24109,-0.47624 h -1.48642 v 3.39136 h 1.11121 q 0.63498,-0.0144 1.02462,-0.41851 0.40408,-0.41851 0.40408,-1.06792 v -0.0289 h 0.14431 v 3.72328 h -0.14431 v -0.0577 q 0,-0.63498 -0.40408,-1.05348 -0.38964,-0.41851 -1.02462,-0.41851 h -1.11121 v 3.26147 h 1.3854 q 0.86588,0 1.57302,-0.63497 0.70713,-0.63498 0.96689,-1.73176 h 0.12988 l -0.40407,3.03057 z"
         id="path18797" />
    </g>
  </g>
</svg>
